<svg width="196" height="61" viewBox="0 0 196 61" fill="none" xmlns="http://www.w3.org/2000/svg">
<path d="M35.1136 20C34.9621 18.1061 34.2519 16.6288 32.983 15.5682C31.733 14.5076 29.8295 13.9773 27.2727 13.9773C25.6439 13.9773 24.3087 14.1761 23.267 14.5739C22.2443 14.9527 21.4867 15.4735 20.9943 16.1364C20.5019 16.7992 20.2462 17.5568 20.2273 18.4091C20.1894 19.1098 20.3125 19.7443 20.5966 20.3125C20.8996 20.8617 21.3731 21.3636 22.017 21.8182C22.661 22.2538 23.4848 22.6515 24.4886 23.0114C25.4924 23.3712 26.6856 23.6932 28.0682 23.9773L32.8409 25C36.0606 25.6818 38.8163 26.5814 41.108 27.6989C43.3996 28.8163 45.2746 30.1326 46.733 31.6477C48.1913 33.1439 49.2614 34.8295 49.9432 36.7045C50.6439 38.5795 51.0038 40.625 51.0227 42.8409C51.0038 46.6667 50.0473 49.9053 48.1534 52.5568C46.2595 55.2083 43.5511 57.2254 40.0284 58.608C36.5246 59.9905 32.3106 60.6818 27.3864 60.6818C22.3295 60.6818 17.9167 59.9337 14.1477 58.4375C10.3977 56.9413 7.48106 54.6402 5.39773 51.5341C3.33333 48.4091 2.29167 44.4129 2.27273 39.5455H17.2727C17.3674 41.3258 17.8125 42.822 18.608 44.0341C19.4034 45.2462 20.5208 46.1648 21.9602 46.7898C23.4186 47.4148 25.1515 47.7273 27.1591 47.7273C28.8447 47.7273 30.2557 47.5189 31.392 47.1023C32.5284 46.6856 33.3902 46.108 33.9773 45.3693C34.5644 44.6307 34.8674 43.7879 34.8864 42.8409C34.8674 41.9508 34.5739 41.1742 34.0057 40.5114C33.4564 39.8295 32.5473 39.2235 31.2784 38.6932C30.0095 38.1439 28.2955 37.6326 26.1364 37.1591L20.3409 35.9091C15.1894 34.7917 11.1269 32.9261 8.15341 30.3125C5.19886 27.6799 3.73106 24.0909 3.75 19.5455C3.73106 15.8523 4.71591 12.6231 6.70455 9.85795C8.71212 7.07386 11.4867 4.9053 15.0284 3.35227C18.589 1.79924 22.6705 1.02273 27.2727 1.02273C31.9697 1.02273 36.0322 1.80871 39.4602 3.38068C42.8883 4.95265 45.5303 7.16856 47.3864 10.0284C49.2614 12.8693 50.2083 16.1932 50.2273 20H35.1136ZM55.4313 60V1.81818H71.2267V25.3409H72.0222L89.5222 1.81818H107.931L88.2722 27.7273L108.386 60H89.5222L76.454 38.1818L71.2267 45V60H55.4313ZM111.019 60V1.81818H136.132C140.451 1.81818 144.229 2.60417 147.468 4.17614C150.706 5.74811 153.225 8.01136 155.024 10.9659C156.824 13.9205 157.723 17.4621 157.723 21.5909C157.723 25.7576 156.795 29.2708 154.939 32.1307C153.102 34.9905 150.517 37.1496 147.184 38.608C143.869 40.0663 139.996 40.7955 135.564 40.7955H120.564V28.5227H132.382C134.238 28.5227 135.82 28.2955 137.127 27.8409C138.452 27.3674 139.466 26.6193 140.166 25.5966C140.886 24.5739 141.246 23.2386 141.246 21.5909C141.246 19.9242 140.886 18.5701 140.166 17.5284C139.466 16.4678 138.452 15.6913 137.127 15.1989C135.82 14.6875 134.238 14.4318 132.382 14.4318H126.814V60H111.019ZM145.11 33.2955L159.655 60H142.496L128.291 33.2955H145.11Z" fill="black"/>
<path opacity="0.2" d="M193.307 0.363634L180.182 49.125H178.83L191.955 0.363634H193.307Z" fill="#1E1E1E"/>
</svg>
